<svg xmlns="http://www.w3.org/2000/svg" viewBox="0 0 64 64" fill="none">
  <circle cx="32" cy="32" r="30" fill="#122E8A"/>
  <circle cx="32" cy="32" r="29" stroke="#F7FAFF" stroke-width="2"/>
  <svg x="18" y="6" width="28" height="24" viewBox="0 0 1024 1024" preserveAspectRatio="xMidYMid meet" overflow="visible">
    <path d="M894.826146 884.835902H128.874146c-8.99122 0-16.184195 6.893268-16.184195 15.085269v9.490731c0 8.291902 7.093073 15.085268 16.184195 15.085269h765.952c8.99122 0 16.184195-6.893268 16.184195-15.085269v-9.490731c-0.099902-8.192-7.292878-15.085268-16.184195-15.085269z m3.896195 24.675903c0 2.097951-1.898146 3.796293-3.996097 3.896195l-765.952-0.099902c-2.097951 0-3.996098-1.698341-3.996098-3.796293v-9.490732c0-2.097951 1.898146-3.796293 3.996098-3.796293h765.952c2.097951 0 3.996098 1.698341 3.996097 3.796293v9.490732zM897.82322 439.770537c-10.190049 0-21.379122 2.497561-33.367415 7.79239-10.689561 4.295805-20.579902 8.59161-29.970732 12.787512-12.987317-38.162732-40.360585-65.036488-78.123707-65.036488-15.58478 0-32.468293 4.595512-49.95122 14.385951-57.244098 29.171512-97.205073 56.245073-131.971122 77.424391-2.497561-0.599415-4.89522-1.098927-7.39278-1.498537-7.093073-32.768-16.384-60.241171-27.273366-83.918049 9.990244-7.39278 18.082341-10.689561 22.178342-10.489756 3.29678 0.099902 4.89522 0.79922 7.492682 5.294829 2.397659 4.395707 3.896195 12.587707 3.896196 24.376196 0 6.193951-0.39961 13.386927-1.298732 21.778731l-1.698342 16.184195 12.088196-11.588682c29.171512-28.472195 45.155902-50.550634 45.455609-69.632 0.199805-15.285073-12.68761-26.174439-32.268488-30.170537l-0.699317-0.099903h-0.699317c-11.48878 0-23.676878 2.497561-35.964878 6.893269 8.891317-11.288976 14.585756-23.876683 14.885464-36.264586 0-1.398634-0.099902-2.697366-0.199805-3.896195 0-11.88839-5.894244-22.178341-17.482927-22.178341-2.997073 0-6.094049 0.599415-8.99122 1.798244-1.298732 0.499512-2.497561 0.699317-3.29678 0.699317-1.798244 0-3.69639-0.79922-5.794341-3.596488 3.796293-4.795317 6.094049-10.689561 6.094048-16.983415 0-10.489756-5.894244-19.480976-14.885463-24.476097 8.891317-4.995122 14.885463-13.986341 14.885463-24.376195 0-10.489756-5.894244-19.480976-14.885463-24.476098 4.295805-2.497561 7.79239-5.794341 10.489756-9.690536 5.294829 8.291902 14.885463 13.886439 25.974634 13.886439 16.883512 0 30.370341-12.787512 30.370342-28.472196 0-15.784585-13.586732-28.572098-30.370342-28.572097-11.189073 0-20.679805 5.694439-25.974634 13.886439-2.297756-3.69639-5.294829-6.793366-9.191024-9.191024 8.691512-4.995122 14.485854-13.986341 14.485853-24.176391 0-15.684683-13.586732-28.472195-30.370341-28.472195-16.883512 0-30.370341 12.787512-30.370342 28.472195 0 9.990244 5.494634 18.681756 13.686634 23.776781-4.195902 2.397659-7.592585 5.694439-10.090146 9.590634-5.294829-8.291902-14.885463-13.886439-25.874732-13.886439-16.883512 0-30.370341 12.787512-30.370341 28.572097 0 15.684683 13.586732 28.472195 30.370341 28.472196 11.089171 0 20.679805-5.694439 25.974635-13.886439 2.597463 3.896195 6.193951 7.39278 10.489756 9.690536-8.891317 4.995122-14.885463 13.986341-14.885464 24.476098 0 10.289951 6.094049 19.381073 14.985366 24.376195-8.891317 4.995122-14.885463 13.986341-14.885463 24.476097 0 5.694439 1.898146 11.089171 4.995122 15.584781-2.597463 3.896195-4.995122 5.194927-6.993171 5.095024-0.79922 0-1.898146-0.099902-3.296781-0.699317-2.997073-1.098927-5.894244-1.798244-8.891317-1.798244-11.48878-0.099902-17.482927 10.489756-17.482926 22.577951-0.099902 0.79922-0.199805 2.297756-0.199805 3.696391 0.099902 12.387902 5.894244 24.97561 14.885463 36.264585-12.487805-4.295805-24.476098-6.893268-35.964878-6.893268l-0.79922-0.099903-0.599414 0.099903c-19.580878 3.996098-32.568195 14.885463-32.268488 30.170536 0.39961 18.881561 16.384 40.96 45.45561 69.632l12.188097 11.888391-1.798244-16.284098c-0.79922-8.291902-1.298732-15.484878-1.298731-21.578927 0-11.588683 1.498537-19.880585 3.896195-24.476097 2.497561-4.49561 4.195902-5.194927 7.492683-5.494634 4.195902-0.099902 12.188098 3.196878 22.178341 10.589658-10.889366 23.676878-20.180293 51.150049-27.273366 83.918049-2.497561 0.499512-4.89522 0.999024-7.39278 1.498536-34.566244-21.179317-74.727024-48.252878-132.071024-77.524292-17.482927-9.590634-34.366439-14.286049-49.851318-14.286049-37.763122 0.099902-65.236293 26.973659-78.123707 65.036488-9.390829-4.195902-19.381073-8.59161-30.070634-12.787512-11.788488-5.194927-23.077463-7.79239-33.367415-7.792391-41.459512 0.39961-61.639805 39.861073-61.739707 88.613464 0 9.390829 0.699317 19.281171 2.297756 29.471219 8.891317 62.838634 41.459512 104.897561 71.729951 137.865366 12.487805 13.586732 27.573073 24.076488 41.959025 33.56722h-36.963903v150.253268h736.880391V729.48761h-36.564293c14.385951-9.590634 29.47122-20.08039 41.959024-33.767025 30.170537-32.967805 62.838634-75.126634 71.729951-137.965268 1.498537-10.090146 2.297756-20.08039 2.297757-29.471219-0.499512-48.652488-20.679805-88.213854-62.139317-88.513561zM564.84839 158.345366c9.990244 0 18.182244 7.692488 18.282147 17.383024 0 9.590634-8.291902 17.18322-18.282147 17.18322-10.090146 0-18.282146-7.592585-18.282146-17.18322 0.099902-9.690537 8.291902-17.383024 18.282146-17.383024z m-103.798634 34.666146c-9.990244 0-18.282146-7.592585-18.282146-17.183219s8.192-17.383024 18.282146-17.383025c9.990244 0 18.282146 7.592585 18.282146 17.383025 0 9.390829-8.291902 17.18322-18.282146 17.183219z m279.027512 335.272586v4.895219c0 7.292878-0.699317 14.985366-2.097951 22.877659-1.398634 7.992195-3.396683 16.284098-5.794341 24.576-8.092098-9.490732-17.083317-18.382049-26.474147-26.873756-3.196878-2.897171-6.193951-5.894244-9.490731-8.59161 5.594537-7.492683 13.287024-13.986341 22.178341-19.281171 6.693463-3.796293 13.886439-7.093073 21.978537-9.191024 0 1.898146-0.099902 3.896195-0.099903 5.794341 0 1.998049 0 3.796293-0.199805 5.794342z m-124.178731-36.364488c26.474146-13.886439 51.649561-28.27239 68.732878-35.265561h0.099902c2.097951-0.999024 3.996098-1.498537 5.894244-2.097951 0.79922-0.199805 1.898146-0.699317 2.697366-0.79922 1.398634-0.499512 2.497561-0.499512 3.796293-0.699317 0.999024-0.099902 2.097951-0.499512 2.997073-0.499512 20.679805 0.599415 29.671024 6.793366 34.666146 18.981463 1.198829 2.997073 2.297756 6.193951 3.096976 9.890342-7.39278 0-14.585756 0.599415-21.778732 1.698341-19.580878 2.397659-37.66322 8.59161-53.347903 17.682732-6.094049 3.396683-11.788488 7.39278-16.983414 11.588683-6.094049-3.096976-12.387902-6.094049-18.681756-8.791415-0.599415-0.199805-1.298732-0.499512-1.898147-0.699317-5.794341-2.397659-11.588683-4.795317-17.582829-6.693463 2.797268-1.498537 5.594537-2.897171 8.291903-4.295805z m-45.355708 33.866927c59.841561 13.08722 107.395122 49.152 148.055415 97.205073-28.871805-10.589659-57.244098-18.182244-84.717268-18.182244-22.677854 0-44.65639 5.194927-65.635903 18.182244 19.980488-30.869854 20.679805-63.338146 2.297756-97.205073z m175.828293 192.512H570.742634l-3.596488-78.922927 179.224976 78.922927z m-250.755122-590.723122c0-9.590634 8.192-17.18322 18.282146-17.18322 9.990244 0 18.282146 7.592585 18.282147 17.18322s-8.192 17.18322-18.282147 17.183219c-9.990244 0.099902-18.282146-7.592585-18.282146-17.183219z m-0.999024 48.053073c0-9.490732 8.291902-17.18322 18.282146-17.18322s18.182244 7.692488 18.182244 17.18322c0 9.690537-8.192 17.383024-18.182244 17.383024s-18.282146-7.79239-18.282146-17.383024z m0 48.952195c0-9.690537 8.291902-17.383024 18.282146-17.383024s18.182244 7.592585 18.182244 17.383024c0 9.590634-8.192 17.18322-18.182244 17.183219-9.890341 0-18.282146-7.592585-18.282146-17.183219z m30.370341 223.481756c0 0.79922-0.39961 1.698341-0.499512 2.497561-1.198829 4.89522-5.594537 8.59161-11.089171 8.59161-6.293854 0-11.588683-4.89522-11.588683-10.889366 0-6.193951 5.194927-10.889366 11.588683-11.089171 5.494634 0.099902 9.890341 3.69639 11.089171 8.59161 0.099902 0.599415 0.499512 1.498537 0.499512 2.297756zM489.521951 504.707122c0-10.689561 8.092098-19.68078 18.881561-21.878634 0.999024-0.099902 1.898146-0.099902 2.897171-0.199805 0.699317-0.099902 1.298732-0.099902 1.898146-0.099903 8.092098 0 15.085268 3.796293 19.480976 9.490732 0.099902 0.099902 0.199805 0.199805 0.199805 0.39961 0.199805 0.39961 0.39961 0.599415 0.499512 0.999024 2.097951 3.29678 3.396683 7.292878 3.596488 11.388878v0.099903c0 10.289951-7.592585 19.081366-17.882537 21.479024-1.898146 0.499512-3.796293 0.79922-5.794341 0.79922-7.992195 0-14.885463-3.69639-19.081366-9.290927-0.099902-0.099902-0.39961-0.39961-0.499512-0.599415-0.499512-0.599415-0.699317-1.298732-1.098927-1.898146-0.39961-0.599415-0.79922-1.198829-1.098927-1.898146-0.099902-0.199805-0.099902-0.499512-0.199805-0.79922-1.198829-2.497561-1.798244-5.294829-1.798244-7.992195z m35.465366 56.644683c0 6.193951-5.194927 10.889366-11.588683 10.889366-6.293854 0-11.588683-4.89522-11.588683-10.889366 0-1.498537 0.39961-2.997073 0.999025-4.295805 1.198829-2.497561 3.29678-4.49561 5.894244-5.694439 0.099902-0.099902 0.199805-0.099902 0.399609-0.199805 1.398634-0.599415 2.897171-0.79922 4.49561-0.799219 3.196878 0 6.094049 1.298732 8.192 3.196878l0.39961 0.399609c0.79922 0.79922 1.698341 1.898146 2.097951 3.096976 0.299707 1.298732 0.699317 2.697366 0.699317 4.295805z m-11.688585 34.466341c13.187122 0 23.77678 9.990244 23.77678 22.178342 0 4.995122-1.798244 9.390829-4.595512 13.087219-4.295805 5.594537-11.288976 9.290927-19.081366 9.290927-2.697366 0-5.194927-0.599415-7.592585-1.298732-6.393756-1.998049-11.588683-6.693463-14.286049-12.387902-1.198829-2.597463-1.898146-5.594537-1.898146-8.691512-0.099902-12.288 10.489756-22.178341 23.676878-22.178342z m11.688585 78.823025c0 1.998049-0.699317 3.69639-1.698341 5.294829-1.998049 3.29678-5.694439 5.694439-9.990244 5.694439-1.398634 0-2.597463-0.39961-3.896195-0.699317-4.395707-1.498537-7.692488-5.494634-7.692488-10.190049 0-6.193951 5.194927-10.889366 11.588683-10.889366 6.293854-0.199805 11.688585 4.695415 11.688585 10.789464z m-63.837658-148.854634c-18.382049 33.866927-17.682732 66.235317 2.297756 97.205073-20.979512-13.08722-42.958049-18.182244-65.635903-18.182244-27.473171 0-55.945366 7.592585-84.717268 18.182244 40.860098-47.953171 88.213854-84.017951 148.055415-97.205073z m-136.966244-84.617366h-0.39961 0.39961z m-38.362537 39.861073c1.498537-6.993171 3.69639-12.587707 6.993171-16.983415 0.999024-1.198829 1.998049-2.297756 3.096975-3.196878 0.199805-0.199805 0.499512-0.599415 0.699317-0.799219 1.098927-0.79922 2.297756-1.498537 3.396683-2.297756 0.499512-0.39961 0.79922-0.599415 1.298732-0.79922 1.198829-0.599415 2.597463-1.098927 3.996098-1.498536 0.699317-0.199805 1.198829-0.599415 1.898146-0.699318 1.498537-0.499512 3.29678-0.699317 5.095024-1.098926 0.79922-0.099902 1.398634-0.39961 2.297756-0.499513 1.898146-0.199805 4.195902-0.39961 6.293854-0.499512 0.79922-0.099902 1.498537-0.099902 2.497561-0.099902 15.085268 0.499512 53.048195 23.377171 92.409756 43.657366-13.586732 4.49561-26.474146 10.090146-38.961951 16.483902-18.981463-15.684683-43.557463-26.374244-71.030634-29.770927v0.099903c-6.493659-1.098927-13.287024-1.498537-20.180293-1.698342 0.199805 0 0.199805-0.099902 0.199805-0.299707z m40.860098 64.836683c-10.090146 8.291902-19.281171 17.482927-28.072586 26.973658-2.397659 2.597463-4.89522 5.095024-7.093073 7.692488-1.498537-5.095024-2.697366-10.190049-3.896195-15.285073-2.497561-11.288976-3.996098-22.178341-3.996098-32.168585v-0.79922c0-1.198829 0-2.397659 0.099903-3.396683-0.099902-4.195902-0.199805-7.79239-0.199805-11.48878 18.681756 4.89522 33.56722 15.484878 43.157854 28.472195zM459.651122 639.37561l-3.596488 78.922927H280.426146l179.224976-78.922927z m-214.290732 91.910244h531.381073v7.292878H245.36039V731.285854z m-93.40878-171.032976c-1.298732-6.793366-2.497561-13.08722-3.396683-18.981463-0.999024-5.694439-1.498537-10.889366-1.998049-15.784586-0.199805-2.697366-0.39961-5.494634-0.39961-7.79239 0.699317-17.482927 4.295805-25.874732 20.380098-30.070634 1.198829-0.39961 2.397659-0.599415 3.796293-0.79922h0.499512c1.098927 0 2.597463 0.099902 4.195902 0.499513 2.097951 0.39961 4.595512 0.999024 7.492683 1.798243-1.198829 7.492683-1.898146 15.185171-2.097951 23.177366-0.099902 2.297756-0.099902 4.49561-0.099903 6.793366v1.998049c-5.095024 4.89522-9.890341 10.489756-14.086243 16.284098-5.294829 7.39278-10.190049 15.285073-13.986342 23.976585-0.199805-0.499512-0.299707-0.699317-0.299707-1.098927z m6.193951 25.475122c4.995122-16.983415 13.386927-30.470244 23.77678-41.159805 6.693463 52.748488 32.967805 93.208976 58.54283 126.976 0.199805 0.39961 0.499512 0.599415 0.699317 0.79922-3.796293 12.587707-6.793366 25.575024-8.691512 38.862048-0.999024-1.198829-1.898146-2.497561-2.897171-3.69639l-0.599415-0.799219-10.190049-12.68761v0.39961c-0.39961-0.499512-0.699317-0.79922-1.098926-1.298732-0.599415-0.699317-1.098927-1.498537-1.698342-2.297756-0.79922-1.098927-1.698341-2.297756-2.497561-3.396683s-1.698341-2.297756-2.397658-3.296781c-0.79922-1.098927-1.498537-2.097951-2.397659-3.29678-0.999024-1.298732-1.898146-2.697366-2.697366-3.996098-0.79922-1.198829-1.498537-2.297756-2.397658-3.596487-0.699317-0.999024-1.298732-1.998049-1.998049-3.096976-1.098927-1.498537-2.097951-3.196878-3.196878-4.89522-1.798244-2.697366-3.596488-5.594537-5.294829-8.391804-13.486829-21.778732-27.173463-47.453659-34.965854-71.130537z m102.899512 243.162537v5.694439-5.694439H215.789268c-13.786537 0-24.97561-10.489756-24.975609-23.676878 0-13.08722 11.288976-23.676878 24.975609-23.676879h45.255805c13.686634 0 24.97561 10.489756 24.97561 23.676879s-11.189073 23.576976-24.97561 23.676878z m194.210342-2.997074c-3.596488 1.798244-7.592585 2.997073-11.888391 2.997074h-45.255804c-2.697366 0-5.294829-0.599415-7.792391-1.298732-6.793366-2.297756-12.387902-6.893268-15.18517-13.08722-1.298732-2.897171-1.998049-5.894244-1.998049-9.290926 0-13.08722 11.288976-23.676878 24.97561-23.676879h45.355707c3.196878 0 6.293854 0.599415 9.191024 1.698342 3.196878 1.198829 6.094049 2.997073 8.59161 5.194927 4.49561 4.195902 7.39278 10.190049 7.39278 16.78361-0.299707 9.091122-5.694439 16.683707-13.386926 20.679804z m183.52078-0.699317c-3.796293 2.297756-8.291902 3.596488-13.187122 3.696391h-45.355707c-3.096976 0-6.094049-0.599415-8.891317-1.498537-9.390829-3.396683-16.184195-11.88839-16.184195-21.978537 0-2.397659 0.499512-4.49561 1.198829-6.693463 3.096976-9.690537 12.587707-16.983415 23.876683-16.983415h45.355707c2.897171 0 5.594537 0.599415 8.192 1.398635 3.596488 1.198829 6.793366 2.997073 9.390829 5.494634 4.49561 4.195902 7.39278 10.190049 7.392781 16.783609 0 8.391805-4.695415 15.58478-11.788488 19.780683z m186.717659-3.196878c-4.49561 4.295805-10.789463 6.893268-17.58283 6.893269h-45.355707c-2.297756 0-4.49561-0.39961-6.493658-0.999025-8.691512-2.297756-15.484878-8.791415-17.58283-17.183219-0.499512-1.798244-0.699317-3.596488-0.699317-5.494634 0-13.08722 11.288976-23.676878 24.97561-23.676879h45.355707c2.897171 0 5.694439 0.599415 8.192 1.398635 3.596488 1.198829 6.793366 2.997073 9.39083 5.494634 4.49561 4.195902 7.39278 10.190049 7.39278 16.78361-0.199805 6.593561-3.096976 12.487805-7.592585 16.783609zM823.196098 668.04761c-7.592585 11.588683-14.685659 21.479024-19.980488 28.372292-2.597463 3.396683-4.795317 6.193951-6.293854 7.992196-0.79922 0.79922-1.298732 1.498537-1.698341 1.898146-0.199805 0.099902-0.39961 0.39961-0.599415 0.599415l-0.099902-0.099903s-0.199805 0.099902-0.599415 0.599415c-0.999024 1.198829-1.898146 2.497561-2.897171 3.69639-0.39961-2.297756-0.79922-4.395707-1.198829-6.793366-1.798244-10.889366-4.195902-21.578927-7.392781-32.068683 0.199805-0.199805 0.499512-0.599415 0.699318-0.799219 15.58478-20.579902 31.469268-43.657366 42.958048-70.531122 0.199805-0.499512 0.499512-0.79922 0.599415-1.298732 0.199805-0.599415 0.39961-1.098927 0.599415-1.698341 6.693463-15.98439 11.588683-33.267512 14.286048-52.248976 2.097951 2.297756 3.996098 4.595512 5.894244 7.093073 0.499512 0.599415 0.999024 1.098927 1.298732 1.698342 0.499512 0.599415 0.999024 1.398634 1.398634 2.097951 6.193951 8.891317 11.288976 19.081366 14.585756 31.269463-9.490732 27.672976-26.474146 57.443902-41.559414 80.221659z m50.350829-117.884878c-0.599415 3.196878-1.198829 6.393756-1.898147 9.690536v0.39961c0 0.39961-0.099902 0.79922-0.099902 1.098927-0.099902 0.699317-0.199805 1.298732-0.199805 1.998049-6.393756-15.58478-15.58478-28.572098-26.474146-39.661269-0.499512-0.599415-0.999024-1.098927-1.398634-1.498536v-3.396683-0.999025-5.694439c-0.199805-8.092098-0.999024-15.784585-1.998049-23.177365 4.995122-1.398634 9.191024-2.297756 11.588683-2.297757h0.599414c1.698341 0.39961 2.997073 0.699317 4.395708 1.098927 0.699317 0.099902 1.398634 0.39961 2.097951 0.499513 1.698341 0.499512 2.997073 1.098927 4.295805 1.798243 0.39961 0.099902 0.699317 0.199805 0.999024 0.39961 1.298732 0.599415 2.397659 1.398634 3.296781 2.297756 0.199805 0.099902 0.499512 0.39961 0.699317 0.499512 1.098927 0.79922 1.898146 1.798244 2.697366 2.997074 0.099902 0.099902 0.39961 0.199805 0.399609 0.399609 3.596488 4.995122 4.595512 11.788488 5.095025 21.27922-0.099902 8.891317-1.798244 19.980488-4.096 32.268488z" fill="#F7FAFF"/>
  </svg>
  <g transform="translate(32 44) scale(-1 1) translate(-32 -44)">
    <text x="32" y="43" fill="#F7FAFF" font-size="28" text-anchor="middle" dominant-baseline="middle" font-family="Times New Roman, Georgia, serif" font-weight="700">R</text>
  </g>
</svg>
